<?xml version="1.0" encoding="UTF-8"?>
<!DOCTYPE svg PUBLIC "-//W3C//DTD SVG 1.1//EN" "http://www.w3.org/Graphics/SVG/1.1/DTD/svg11.dtd">
<svg xmlns="http://www.w3.org/2000/svg" version="1.1" width="703px" height="703px" style="shape-rendering:geometricPrecision; text-rendering:geometricPrecision; image-rendering:optimizeQuality; fill-rule:evenodd; clip-rule:evenodd" xmlns:xlink="http://www.w3.org/1999/xlink">
<g><path style="opacity:0.998" fill="#3b231d" d="M 415.5,158.5 C 416.514,159.674 417.847,160.34 419.5,160.5C 422.09,161.128 424.423,162.295 426.5,164C 433.036,170.369 439.369,176.869 445.5,183.5C 445.427,185.027 446.094,186.027 447.5,186.5C 449.167,187.5 450.5,188.833 451.5,190.5C 451.427,192.027 452.094,193.027 453.5,193.5C 454.5,193.833 455.167,194.5 455.5,195.5C 455.427,197.027 456.094,198.027 457.5,198.5C 458.167,198.5 458.5,198.833 458.5,199.5C 458.427,201.027 459.094,202.027 460.5,202.5C 462.262,203.262 463.262,204.596 463.5,206.5C 463.427,208.027 464.094,209.027 465.5,209.5C 465.427,211.027 466.094,212.027 467.5,212.5C 469.588,214.336 470.921,216.669 471.5,219.5C 471.427,221.027 472.094,222.027 473.5,222.5C 478.71,230.449 482.377,239.116 484.5,248.5C 484.41,251.152 485.076,253.485 486.5,255.5C 486.294,258.495 486.96,261.162 488.5,263.5C 491.183,275.325 492.016,287.325 491,299.5C 488.903,311.083 487.569,322.749 487,334.5C 484.392,346.099 478.226,355.266 468.5,362C 453.015,371.275 436.348,377.609 418.5,381C 407.586,383.226 396.586,384.892 385.5,386C 386.823,386.816 387.489,387.983 387.5,389.5C 387.5,390.833 388.167,391.5 389.5,391.5C 390.222,391.918 390.722,392.584 391,393.5C 391.333,397.833 391.667,402.167 392,406.5C 393.868,409.605 395.035,412.938 395.5,416.5C 395.294,419.495 395.96,422.162 397.5,424.5C 400.777,442.477 394.777,447.143 379.5,438.5C 382.953,445.704 383.62,453.037 381.5,460.5C 384.997,491.801 388.163,523.134 391,554.5C 404.973,564.508 403.473,568.675 386.5,567C 381.363,566.925 376.529,565.758 372,563.5C 366.146,538.751 359.979,514.084 353.5,489.5C 353.714,487.856 353.38,486.356 352.5,485C 349.961,484.204 347.628,484.371 345.5,485.5C 348.776,508.926 351.109,532.26 352.5,555.5C 351.523,558.287 351.19,561.287 351.5,564.5C 345.208,566.193 338.708,567.526 332,568.5C 329.474,568.435 327.141,567.768 325,566.5C 324.333,565.167 324.333,563.833 325,562.5C 328.097,559.911 330.597,556.911 332.5,553.5C 325.667,522.833 318.833,492.167 312,461.5C 310.745,458.072 309.245,454.738 307.5,451.5C 308.222,449.056 309.222,446.722 310.5,444.5C 307.997,441.712 306.997,438.379 307.5,434.5C 307.423,429.163 308.423,424.163 310.5,419.5C 311.924,417.485 312.59,415.152 312.5,412.5C 313.924,410.485 314.59,408.152 314.5,405.5C 315.738,400.105 317.738,395.105 320.5,390.5C 321.478,390.189 322.145,389.522 322.5,388.5C 319.232,387.513 315.898,387.18 312.5,387.5C 306.924,387.129 301.591,386.129 296.5,384.5C 294.162,382.96 291.495,382.294 288.5,382.5C 272.834,378.332 257.834,372.498 243.5,365C 235.667,357.478 230.834,348.312 229,337.5C 224.607,308.53 224.607,279.53 229,250.5C 231.147,235.474 233.48,220.474 236,205.5C 237.892,200.447 241.058,196.447 245.5,193.5C 247.5,192.167 249.167,190.5 250.5,188.5C 258.225,179.811 267.225,172.811 277.5,167.5C 279.027,167.573 280.027,166.906 280.5,165.5C 289.079,159.881 298.412,155.881 308.5,153.5C 312.837,153.416 316.837,152.416 320.5,150.5C 352.75,145.733 384.416,148.399 415.5,158.5 Z"/></g>
<g><path style="opacity:0.827" fill="#7d6c66" d="M 320.5,150.5 C 316.837,152.416 312.837,153.416 308.5,153.5C 312.239,151.898 316.239,150.898 320.5,150.5 Z"/></g>
<g><path style="opacity:1" fill="#fdfdfc" d="M 462.5,360.5 C 450.13,361.633 437.963,363.966 426,367.5C 425.235,367.43 424.735,367.097 424.5,366.5C 435.775,361.947 445.609,355.28 454,346.5C 461.356,337.604 463.356,327.604 460,316.5C 450.401,282.449 432.568,253.616 406.5,230C 388.94,215.804 369.107,205.97 347,200.5C 296.854,211.313 265.854,241.647 254,291.5C 251.711,311.779 251.044,332.112 252,352.5C 252.395,356.019 253.395,359.352 255,362.5C 258.473,363.935 261.973,365.268 265.5,366.5C 267.792,369.305 270.459,371.638 273.5,373.5C 263.956,370.063 254.623,366.063 245.5,361.5C 238.035,353.298 233.535,343.631 232,332.5C 228.092,289.804 230.759,247.471 240,205.5C 274.403,162.911 318.903,145.411 373.5,153C 388.162,154.932 402.496,158.266 416.5,163C 443.243,182.418 463.41,207.251 477,237.5C 483.893,253.796 487.393,270.796 487.5,288.5C 486.107,303.853 484.607,319.186 483,334.5C 480.045,346.281 473.212,354.948 462.5,360.5 Z"/></g>
<g><path style="opacity:0.11" fill="#958883" d="M 415.5,158.5 C 417.38,158.229 418.713,158.896 419.5,160.5C 417.847,160.34 416.514,159.674 415.5,158.5 Z"/></g>
<g><path style="opacity:0.6" fill="#9d918d" d="M 280.5,165.5 C 280.027,166.906 279.027,167.573 277.5,167.5C 277.973,166.094 278.973,165.427 280.5,165.5 Z"/></g>
<g><path style="opacity:0.576" fill="#988a86" d="M 445.5,183.5 C 446.906,183.973 447.573,184.973 447.5,186.5C 446.094,186.027 445.427,185.027 445.5,183.5 Z"/></g>
<g><path style="opacity:0.392" fill="#aca29e" d="M 250.5,188.5 C 249.167,190.5 247.5,192.167 245.5,193.5C 246.167,190.833 247.833,189.167 250.5,188.5 Z"/></g>
<g><path style="opacity:0.631" fill="#9e918d" d="M 451.5,190.5 C 452.906,190.973 453.573,191.973 453.5,193.5C 452.094,193.027 451.427,192.027 451.5,190.5 Z"/></g>
<g><path style="opacity:0.647" fill="#9a8e89" d="M 455.5,195.5 C 456.906,195.973 457.573,196.973 457.5,198.5C 456.094,198.027 455.427,197.027 455.5,195.5 Z"/></g>
<g><path style="opacity:0.682" fill="#978a85" d="M 458.5,199.5 C 459.906,199.973 460.573,200.973 460.5,202.5C 459.094,202.027 458.427,201.027 458.5,199.5 Z"/></g>
<g><path style="opacity:1" fill="#292828" d="M 335.5,251.5 C 332.5,251.5 329.5,251.5 326.5,251.5C 324.801,251.527 323.467,252.194 322.5,253.5C 313.48,252.688 304.48,253.688 295.5,256.5C 294.053,255.115 293.053,255.448 292.5,257.5C 287.29,258.57 282.29,260.237 277.5,262.5C 276.468,259.033 275.135,255.7 273.5,252.5C 290.163,226.99 313.496,211.157 343.5,205C 355.549,203.504 357.049,206.337 348,213.5C 340.141,224.91 335.975,237.576 335.5,251.5 Z"/></g>
<g><path style="opacity:0.349" fill="#a09490" d="M 463.5,206.5 C 464.906,206.973 465.573,207.973 465.5,209.5C 464.094,209.027 463.427,208.027 463.5,206.5 Z"/></g>
<g><path style="opacity:0.31" fill="#a19591" d="M 465.5,209.5 C 466.906,209.973 467.573,210.973 467.5,212.5C 466.094,212.027 465.427,211.027 465.5,209.5 Z"/></g>
<g><path style="opacity:1" fill="#c7928b" d="M 373.5,235.5 C 371.373,229.246 368.207,223.58 364,218.5C 353.466,237.665 349.966,257.999 353.5,279.5C 353.5,280.167 353.167,280.5 352.5,280.5C 351.791,279.596 350.791,279.263 349.5,279.5C 349.5,280.5 349.5,281.5 349.5,282.5C 348.5,282.5 347.5,282.5 346.5,282.5C 336.814,261.335 337.314,240.335 348,219.5C 351.137,217.18 354.637,215.847 358.5,215.5C 362.34,216.753 366.173,216.753 370,215.5C 373.195,216.178 376.362,217.012 379.5,218C 381.708,223.612 383.042,229.445 383.5,235.5C 380.167,235.5 376.833,235.5 373.5,235.5 Z"/></g>
<g><path style="opacity:1" fill="#fcedea" d="M 373.5,235.5 C 368.7,236.608 364.366,238.775 360.5,242C 360.833,242.5 361.167,243 361.5,243.5C 365.184,241.161 369.184,239.828 373.5,239.5C 375.117,240.589 375.95,242.256 376,244.5C 376.711,253.194 376.544,261.861 375.5,270.5C 367.718,272.391 360.384,275.391 353.5,279.5C 349.966,257.999 353.466,237.665 364,218.5C 368.207,223.58 371.373,229.246 373.5,235.5 Z"/></g>
<g><path style="opacity:1" fill="#2a2929" d="M 424.5,268.5 C 422.16,263.317 418.493,259.15 413.5,256C 408.5,254.333 403.5,252.667 398.5,251C 394.413,250.238 390.413,250.404 386.5,251.5C 386.5,247.167 386.5,242.833 386.5,238.5C 395.258,239.475 403.425,242.142 411,246.5C 411.692,245.975 412.192,245.308 412.5,244.5C 410.163,241.678 407.163,239.845 403.5,239C 397.96,237.188 392.293,236.021 386.5,235.5C 386.121,229.684 385.288,224.018 384,218.5C 408.849,232.849 427.683,252.849 440.5,278.5C 440.291,279.086 439.957,279.586 439.5,280C 434.798,280.828 430.131,280.662 425.5,279.5C 427.69,275.79 428.69,271.79 428.5,267.5C 427.041,267.433 425.708,267.766 424.5,268.5 Z"/></g>
<g><path style="opacity:0.259" fill="#a59995" d="M 471.5,219.5 C 472.906,219.973 473.573,220.973 473.5,222.5C 472.094,222.027 471.427,221.027 471.5,219.5 Z"/></g>
<g><path style="opacity:1" fill="#2b150d" d="M 298.5,236.5 C 302.846,236.334 307.179,236.501 311.5,237C 315.134,237.156 318.467,238.156 321.5,240C 320.4,241.023 319.067,241.523 317.5,241.5C 305.733,237.777 295.066,239.777 285.5,247.5C 284.246,245.741 284.579,244.241 286.5,243C 290.434,240.536 294.434,238.369 298.5,236.5 Z"/></g>
<g><path style="opacity:1" fill="#c7938c" d="M 373.5,239.5 C 376.625,238.521 379.958,238.187 383.5,238.5C 384.43,249.347 382.597,259.681 378,269.5C 377.329,270.252 376.496,270.586 375.5,270.5C 376.544,261.861 376.711,253.194 376,244.5C 375.95,242.256 375.117,240.589 373.5,239.5 Z"/></g>
<g><path style="opacity:1" fill="#3c3c3c" d="M 424.5,268.5 C 418.86,271.549 412.86,273.049 406.5,273C 403.673,272.299 401.006,271.299 398.5,270C 399.867,267.699 400.534,265.199 400.5,262.5C 394.997,265.08 389.33,267.414 383.5,269.5C 382.977,267.164 383.477,264.83 385,262.5C 385.719,258.855 386.219,255.188 386.5,251.5C 390.413,250.404 394.413,250.238 398.5,251C 403.5,252.667 408.5,254.333 413.5,256C 418.493,259.15 422.16,263.317 424.5,268.5 Z"/></g>
<g><path style="opacity:1" fill="#3b3a3a" d="M 326.5,251.5 C 329.5,251.5 332.5,251.5 335.5,251.5C 335.938,260.014 337.105,268.347 339,276.5C 332.708,269.249 328.541,260.916 326.5,251.5 Z"/></g>
<g><path style="opacity:0.784" fill="#8a7a74" d="M 484.5,248.5 C 485.924,250.515 486.59,252.848 486.5,255.5C 485.076,253.485 484.41,251.152 484.5,248.5 Z"/></g>
<g><path style="opacity:1" fill="#3c3b3b" d="M 322.5,253.5 C 319.108,260.062 317.108,267.062 316.5,274.5C 312.343,272.503 308.01,271.003 303.5,270C 300.176,265.854 297.51,261.354 295.5,256.5C 304.48,253.688 313.48,252.688 322.5,253.5 Z"/></g>
<g><path style="opacity:1" fill="#3c3b3b" d="M 292.5,257.5 C 291.092,261.686 290.425,266.019 290.5,270.5C 287.404,270.935 284.404,271.435 281.5,272C 279.482,269.111 278.149,265.945 277.5,262.5C 282.29,260.237 287.29,258.57 292.5,257.5 Z"/></g>
<g><path style="opacity:1" fill="#c59089" d="M 343.5,283.5 C 335.343,283.504 328.843,280.171 324,273.5C 323.506,275.134 323.34,276.801 323.5,278.5C 322.883,278.389 322.383,278.056 322,277.5C 321.089,270.346 321.755,263.346 324,256.5C 326.665,266.004 331.499,274.171 338.5,281C 340.315,281.757 341.981,282.59 343.5,283.5 Z"/></g>
<g><path style="opacity:0.529" fill="#90817c" d="M 486.5,255.5 C 487.768,257.905 488.435,260.572 488.5,263.5C 486.96,261.162 486.294,258.495 486.5,255.5 Z"/></g>
<g><path style="opacity:1" fill="#b5837c" d="M 294.5,263.5 C 295.97,265.151 297.303,266.985 298.5,269C 296.866,269.494 295.199,269.66 293.5,269.5C 293.517,267.435 293.85,265.435 294.5,263.5 Z"/></g>
<g><path style="opacity:1" fill="#c59690" d="M 272.5,263.5 C 273.376,263.369 274.043,263.702 274.5,264.5C 275.559,267.618 276.892,270.618 278.5,273.5C 276.381,275.4 274.047,277.066 271.5,278.5C 270.615,273.456 270.948,268.456 272.5,263.5 Z"/></g>
<g><path style="opacity:1" fill="#373534" d="M 270.5,256.5 C 271.043,256.56 271.376,256.893 271.5,257.5C 267.039,268.794 265.206,280.461 266,292.5C 263.794,287.714 262.294,282.714 261.5,277.5C 263.677,270.147 266.677,263.147 270.5,256.5 Z"/></g>
<g><path style="opacity:1" fill="#3b3837" d="M 286.5,274.5 C 287.833,274.5 289.167,274.5 290.5,274.5C 292.398,285.8 290.398,286.466 284.5,276.5C 285.243,275.818 285.909,275.151 286.5,274.5 Z"/></g>
<g><path style="opacity:1" fill="#b8867e" d="M 422.5,272.5 C 423.376,272.369 424.043,272.702 424.5,273.5C 422.679,280.119 419.346,281.119 414.5,276.5C 417.348,275.341 420.015,274.008 422.5,272.5 Z"/></g>
<g><path style="opacity:1" fill="#fcedeb" d="M 343.5,283.5 C 344.791,283.737 345.791,283.404 346.5,282.5C 347.5,282.5 348.5,282.5 349.5,282.5C 349.5,281.5 349.5,280.5 349.5,279.5C 350.791,279.263 351.791,279.596 352.5,280.5C 351.662,280.842 351.328,281.508 351.5,282.5C 352.209,283.404 353.209,283.737 354.5,283.5C 353.827,298.626 355.994,313.292 361,327.5C 368.69,335.306 377.857,337.806 388.5,335C 387.906,334.536 387.239,334.369 386.5,334.5C 387.209,333.596 388.209,333.263 389.5,333.5C 389.735,334.097 390.235,334.43 391,334.5C 400.386,332.453 409.219,329.119 417.5,324.5C 417.639,326.337 418.306,326.67 419.5,325.5C 423.237,313.304 425.57,300.971 426.5,288.5C 429.786,289.207 433.119,289.54 436.5,289.5C 435.814,304.371 433.814,319.038 430.5,333.5C 429.569,335.033 428.902,336.7 428.5,338.5C 428.453,340 429.119,341 430.5,341.5C 435.254,338.913 439.587,335.746 443.5,332C 449.805,332.006 451.971,335.172 450,341.5C 447.649,348.519 443.149,353.686 436.5,357C 408.343,370.998 378.677,379.831 347.5,383.5C 345.393,382.532 343.059,382.198 340.5,382.5C 326.83,379.162 313.163,375.329 299.5,371C 290.942,368.054 282.942,364.054 275.5,359C 269.762,354.357 268.096,348.524 270.5,341.5C 268.798,327.477 267.298,313.477 266,299.5C 266.615,301.116 267.615,302.449 269,303.5C 270.328,311.313 272.161,318.98 274.5,326.5C 275.298,326.043 275.631,325.376 275.5,324.5C 287.037,334.086 300.37,338.252 315.5,337C 319.26,335.539 322.093,333.039 324,329.5C 325.206,325.55 326.206,321.55 327,317.5C 327.825,306.992 327.659,296.658 326.5,286.5C 325.596,285.791 325.263,284.791 325.5,283.5C 326.573,282.749 326.74,281.749 326,280.5C 325.005,279.934 324.172,279.267 323.5,278.5C 323.34,276.801 323.506,275.134 324,273.5C 328.843,280.171 335.343,283.504 343.5,283.5 Z"/></g>
<g><path style="opacity:1" fill="#fcfcfc" d="M 422.5,290.5 C 422.794,302.151 421.128,313.484 417.5,324.5C 409.219,329.119 400.386,332.453 391,334.5C 390.235,334.43 389.735,334.097 389.5,333.5C 391.807,332.023 393.64,330.023 395,327.5C 399.622,314.164 399.622,300.83 395,287.5C 391.434,281.636 386.267,279.47 379.5,281C 377.36,281.973 375.693,283.473 374.5,285.5C 379.68,288.825 381.847,293.492 381,299.5C 379.274,300.576 377.441,300.743 375.5,300C 374,298.5 372.5,297 371,295.5C 370.333,302.5 370.333,309.5 371,316.5C 371.085,324.522 374.585,330.355 381.5,334C 383.134,334.494 384.801,334.66 386.5,334.5C 387.239,334.369 387.906,334.536 388.5,335C 377.857,337.806 368.69,335.306 361,327.5C 355.994,313.292 353.827,298.626 354.5,283.5C 360.373,281.042 366.373,278.875 372.5,277C 378.119,275.701 383.786,275.368 389.5,276C 390.167,276.667 390.833,277.333 391.5,278C 397.639,278.213 403.639,279.213 409.5,281C 413.992,283.998 418.325,287.165 422.5,290.5 Z"/></g>
<g><path style="opacity:1" fill="#311912" d="M 389.5,333.5 C 388.209,333.263 387.209,333.596 386.5,334.5C 384.801,334.66 383.134,334.494 381.5,334C 374.585,330.355 371.085,324.522 371,316.5C 370.333,309.5 370.333,302.5 371,295.5C 372.5,297 374,298.5 375.5,300C 377.441,300.743 379.274,300.576 381,299.5C 381.847,293.492 379.68,288.825 374.5,285.5C 375.693,283.473 377.36,281.973 379.5,281C 386.267,279.47 391.434,281.636 395,287.5C 399.622,300.83 399.622,314.164 395,327.5C 393.64,330.023 391.807,332.023 389.5,333.5 Z"/></g>
<g><path style="opacity:1" fill="#faf9f9" d="M 305.5,283.5 C 303.855,284.479 302.521,285.812 301.5,287.5C 305.708,290.506 307.875,294.506 308,299.5C 304.552,301.988 301.552,301.322 299,297.5C 298.402,305.531 298.735,313.531 300,321.5C 301.896,330.697 307.396,334.197 316.5,332C 321.878,325.866 323.878,318.699 322.5,310.5C 322.636,304.054 321.969,297.721 320.5,291.5C 321.952,290.698 323.618,290.198 325.5,290C 326.337,288.989 326.67,287.822 326.5,286.5C 327.659,296.658 327.825,306.992 327,317.5C 326.206,321.55 325.206,325.55 324,329.5C 322.093,333.039 319.26,335.539 315.5,337C 300.37,338.252 287.037,334.086 275.5,324.5C 274.695,318.973 273.695,313.473 272.5,308C 272.917,305.502 273.251,303.002 273.5,300.5C 272.388,295.162 272.388,289.829 273.5,284.5C 275.5,283.167 277.5,281.833 279.5,280.5C 284.149,287.825 290.816,291.491 299.5,291.5C 298.503,286.998 297.169,282.498 295.5,278C 295.833,277.5 296.167,277 296.5,276.5C 299.829,278.506 302.829,280.839 305.5,283.5 Z"/></g>
<g><path style="opacity:1" fill="#bab8b8" d="M 422.5,290.5 C 418.325,287.165 413.992,283.998 409.5,281C 403.639,279.213 397.639,278.213 391.5,278C 390.833,277.333 390.167,276.667 389.5,276C 383.786,275.368 378.119,275.701 372.5,277C 366.373,278.875 360.373,281.042 354.5,283.5C 353.209,283.737 352.209,283.404 351.5,282.5C 357.34,280.918 363.007,278.752 368.5,276C 376.08,273.785 383.747,273.285 391.5,274.5C 391.709,275.086 392.043,275.586 392.5,276C 403.63,275.57 413.297,279.07 421.5,286.5C 422.429,287.689 422.762,289.022 422.5,290.5 Z"/></g>
<g><path style="opacity:1" fill="#b9b8b8" d="M 305.5,283.5 C 302.829,280.839 299.829,278.506 296.5,276.5C 296.167,277 295.833,277.5 295.5,278C 297.169,282.498 298.503,286.998 299.5,291.5C 290.816,291.491 284.149,287.825 279.5,280.5C 277.5,281.833 275.5,283.167 273.5,284.5C 272.388,289.829 272.388,295.162 273.5,300.5C 271.236,294.817 270.403,288.817 271,282.5C 273.586,280.455 276.42,278.789 279.5,277.5C 282.273,280.196 284.94,283.029 287.5,286C 290.072,288.287 293.072,289.453 296.5,289.5C 295.352,284.57 294.685,279.57 294.5,274.5C 297.187,274.336 299.854,274.503 302.5,275C 304.833,277.333 307.167,279.667 309.5,282C 308.099,282.41 306.766,282.91 305.5,283.5 Z"/></g>
<g><path style="opacity:1" fill="#c8958e" d="M 430.5,333.5 C 433.814,319.038 435.814,304.371 436.5,289.5C 433.119,289.54 429.786,289.207 426.5,288.5C 426.67,287.178 426.337,286.011 425.5,285C 430.155,284.501 434.821,284.334 439.5,284.5C 440.563,298.476 439.063,312.142 435,325.5C 433.726,328.391 432.226,331.058 430.5,333.5 Z"/></g>
<g><path style="opacity:1" fill="#3b3938" d="M 258.5,284.5 C 259.966,285.347 260.8,286.68 261,288.5C 261.759,294.502 262.092,300.502 262,306.5C 257.747,299.622 256.581,292.289 258.5,284.5 Z"/></g>
<g><path style="opacity:1" fill="#b1afae" d="M 325.5,283.5 C 325.263,284.791 325.596,285.791 326.5,286.5C 326.67,287.822 326.337,288.989 325.5,290C 323.618,290.198 321.952,290.698 320.5,291.5C 319.152,290.473 318.652,289.14 319,287.5C 320.356,288.38 321.856,288.714 323.5,288.5C 323.739,286.533 323.406,284.699 322.5,283C 323.577,282.53 324.577,282.697 325.5,283.5 Z"/></g>
<g><path style="opacity:1" fill="#292828" d="M 451.5,330.5 C 452.403,317.837 449.737,305.837 443.5,294.5C 443.335,291.482 443.502,288.482 444,285.5C 449.165,296.164 453.498,307.164 457,318.5C 458.098,325.385 457.431,332.051 455,338.5C 454.304,335.562 453.138,332.896 451.5,330.5 Z"/></g>
<g><path style="opacity:1" fill="#3b3a3a" d="M 443.5,294.5 C 449.737,305.837 452.403,317.837 451.5,330.5C 450.317,329.496 448.984,328.662 447.5,328C 449.665,326.103 450.332,323.936 449.5,321.5C 445.348,325.151 441.348,328.984 437.5,333C 436.668,333.688 436.002,333.521 435.5,332.5C 441.328,320.517 443.995,307.851 443.5,294.5 Z"/></g>
<g><path style="opacity:1" fill="#706e6e" d="M 256.5,304.5 C 258.977,308.101 261.477,311.767 264,315.5C 265.391,320.492 265.557,325.492 264.5,330.5C 257.048,337.285 255.548,345.285 260,354.5C 263.33,359.749 268.163,362.249 274.5,362C 278.841,365.172 283.508,367.839 288.5,370C 277.673,367.724 267.173,364.224 257,359.5C 256.333,357.5 255.667,355.5 255,353.5C 254.006,337.094 254.506,320.761 256.5,304.5 Z"/></g>
<g><path style="opacity:1" fill="#6a6969" d="M 380.5,318.5 C 377.428,319.301 375.762,321.301 375.5,324.5C 373.755,321.115 373.255,317.448 374,313.5C 375.667,312.5 377.333,311.5 379,310.5C 379.567,313.168 380.067,315.834 380.5,318.5 Z"/></g>
<g><path style="opacity:1" fill="#6a6868" d="M 393.5,322.5 C 391.784,320.975 389.784,319.975 387.5,319.5C 388.747,316.96 389.747,314.294 390.5,311.5C 396.09,313.991 397.09,317.658 393.5,322.5 Z"/></g>
<g><path style="opacity:1" fill="#6a6867" d="M 308.5,320.5 C 305.633,320.369 303.967,321.703 303.5,324.5C 301.453,321.098 301.119,317.431 302.5,313.5C 303.736,312.754 305.07,312.421 306.5,312.5C 306.283,315.421 306.949,318.087 308.5,320.5 Z"/></g>
<g><path style="opacity:1" fill="#696766" d="M 318.5,325.5 C 318.288,322.288 316.621,320.288 313.5,319.5C 314.3,317.104 315.3,314.771 316.5,312.5C 317.814,313.313 318.981,314.313 320,315.5C 320.096,319.001 319.596,322.334 318.5,325.5 Z"/></g>
<g><path style="opacity:1" fill="#c3918a" d="M 341.5,321.5 C 338.636,323.023 336.969,325.357 336.5,328.5C 335.005,328.585 334.005,327.919 333.5,326.5C 334.832,323.442 336.832,321.109 339.5,319.5C 340.713,319.747 341.38,320.414 341.5,321.5 Z"/></g>
<g><path style="opacity:1" fill="#bebdbd" d="M 380.5,318.5 C 382.583,320.604 384.917,320.938 387.5,319.5C 389.784,319.975 391.784,320.975 393.5,322.5C 392.56,330.312 388.227,333.146 380.5,331C 378.21,329.223 376.543,327.056 375.5,324.5C 375.762,321.301 377.428,319.301 380.5,318.5 Z"/></g>
<g><path style="opacity:1" fill="#c0c0bf" d="M 313.5,319.5 C 316.621,320.288 318.288,322.288 318.5,325.5C 315.9,330.725 311.9,331.892 306.5,329C 305.117,327.729 304.117,326.229 303.5,324.5C 303.967,321.703 305.633,320.369 308.5,320.5C 310.518,321.933 312.185,321.599 313.5,319.5 Z"/></g>
<g><path style="opacity:1" fill="#371d16" d="M 341.5,321.5 C 342.591,325.622 340.924,327.955 336.5,328.5C 336.969,325.357 338.636,323.023 341.5,321.5 Z"/></g>
<g><path style="opacity:1" fill="#f0dfdc" d="M 266.5,340.5 C 264.265,341.286 263.265,342.952 263.5,345.5C 263.467,348.102 264.467,350.102 266.5,351.5C 270.26,359.199 269.094,359.532 263,352.5C 261.524,347.924 261.19,343.257 262,338.5C 265.395,332.966 266.895,333.633 266.5,340.5 Z"/></g>
<g><path style="opacity:1" fill="#cd9992" d="M 437.5,338.5 C 439.527,338.338 441.527,338.505 443.5,339C 444.804,339.804 445.471,340.971 445.5,342.5C 444.584,347.774 441.584,350.441 436.5,350.5C 436.395,346.452 436.728,342.452 437.5,338.5 Z"/></g>
<g><path style="opacity:1" fill="#c18e87" d="M 266.5,340.5 C 266.5,344.167 266.5,347.833 266.5,351.5C 264.467,350.102 263.467,348.102 263.5,345.5C 263.265,342.952 264.265,341.286 266.5,340.5 Z"/></g>
<g><path style="opacity:1" fill="#ffbfb2" d="M 411.5,342.5 C 416.267,342.191 420.934,342.691 425.5,344C 428.875,345.029 430.042,347.196 429,350.5C 427.055,351.863 424.888,352.697 422.5,353C 417.833,353.667 413.167,353.667 408.5,353C 405.125,351.971 403.958,349.804 405,346.5C 407.013,344.752 409.18,343.418 411.5,342.5 Z"/></g>
<g><path style="opacity:1" fill="#ffbfb2" d="M 275.5,344.5 C 280.179,344.334 284.845,344.501 289.5,345C 292.2,345.949 293.033,347.783 292,350.5C 287.078,355.202 281.245,356.702 274.5,355C 270.336,351.005 270.669,347.505 275.5,344.5 Z"/></g>
<g><path style="opacity:0.999" fill="#381e17" d="M 333.5,343.5 C 348.634,342.872 363.634,343.872 378.5,346.5C 377.719,358.767 371.719,367.267 360.5,372C 343.196,378.55 328.696,374.716 317,360.5C 314.921,356.347 313.421,352.014 312.5,347.5C 319.66,346.404 326.66,345.071 333.5,343.5 Z"/></g>
<g><path style="opacity:1" fill="#e2dedd" d="M 334.5,346.5 C 345.216,346.156 355.882,346.656 366.5,348C 351.829,348.678 337.162,349.012 322.5,349C 326.736,348.665 330.736,347.832 334.5,346.5 Z"/></g>
<g><path style="opacity:1" fill="#c55943" d="M 323.5,362.5 C 323.859,360.629 324.859,359.129 326.5,358C 329.767,355.87 333.1,354.037 336.5,352.5C 349.147,351.225 361.814,351.225 374.5,352.5C 371.121,362.709 364.121,368.876 353.5,371C 341.776,373.697 331.776,370.864 323.5,362.5 Z"/></g>
<g><path style="opacity:1" fill="#e6816b" d="M 336.5,352.5 C 333.1,354.037 329.767,355.87 326.5,358C 324.859,359.129 323.859,360.629 323.5,362.5C 320.272,360.394 318.272,357.394 317.5,353.5C 323.798,352.504 330.132,352.17 336.5,352.5 Z"/></g>
<g><path style="opacity:1" fill="#898888" d="M 462.5,360.5 C 452.876,366.437 442.543,370.937 431.5,374C 413.697,378.16 395.697,381.16 377.5,383C 371.713,385.394 366.046,388.06 360.5,391C 359.663,392.011 359.33,393.178 359.5,394.5C 357.856,394.286 356.356,394.62 355,395.5C 353.621,391.525 354.787,388.691 358.5,387C 370.667,383.207 383.001,379.874 395.5,377C 405.386,373.984 415.053,370.484 424.5,366.5C 424.735,367.097 425.235,367.43 426,367.5C 437.963,363.966 450.13,361.633 462.5,360.5 Z"/></g>
<g><path style="opacity:1" fill="#868483" d="M 265.5,366.5 C 282.298,372.766 299.298,378.433 316.5,383.5C 301.557,382.867 287.224,379.533 273.5,373.5C 270.459,371.638 267.792,369.305 265.5,366.5 Z"/></g>
<g><path style="opacity:0.835" fill="#877671" d="M 288.5,382.5 C 291.495,382.294 294.162,382.96 296.5,384.5C 293.572,384.435 290.905,383.768 288.5,382.5 Z"/></g>
<g><path style="opacity:1" fill="#be8e88" d="M 340.5,382.5 C 343.059,382.198 345.393,382.532 347.5,383.5C 344.718,383.773 342.551,385.106 341,387.5C 339.566,387.07 338.399,386.236 337.5,385C 339.119,384.764 340.119,383.931 340.5,382.5 Z"/></g>
<g><path style="opacity:1" fill="#898786" d="M 338.5,397.5 C 333.817,395.137 329.15,392.804 324.5,390.5C 326.897,388.544 326.897,386.71 324.5,385C 334.43,383.434 339.096,387.601 338.5,397.5 Z"/></g>
<g><path style="opacity:0.71" fill="#aca7a5" d="M 312.5,387.5 C 315.898,387.18 319.232,387.513 322.5,388.5C 322.145,389.522 321.478,390.189 320.5,390.5C 320.389,389.883 320.056,389.383 319.5,389C 316.964,388.814 314.631,388.314 312.5,387.5 Z"/></g>
<g><path style="opacity:1" fill="#848181" d="M 369.5,389.5 C 373.323,389.167 374.823,390.834 374,394.5C 369.631,392.732 365.965,393.732 363,397.5C 362.167,396.667 361.333,395.833 360.5,395C 363.564,393.141 366.564,391.308 369.5,389.5 Z"/></g>
<g><path style="opacity:0.11" fill="#d4cfcc" d="M 387.5,389.5 C 388.5,389.833 389.167,390.5 389.5,391.5C 388.167,391.5 387.5,390.833 387.5,389.5 Z"/></g>
<g><path style="opacity:1" fill="#f8f7f7" d="M 324.5,390.5 C 329.15,392.804 333.817,395.137 338.5,397.5C 339.909,399.305 340.409,401.305 340,403.5C 331.607,411.305 323.44,419.305 315.5,427.5C 316.348,429.283 317.681,429.783 319.5,429C 326.068,421.995 332.734,415.162 339.5,408.5C 340.167,410.5 340.833,412.5 341.5,414.5C 342.344,417.678 344.011,420.345 346.5,422.5C 336.385,430.658 324.718,435.325 311.5,436.5C 312.995,420.351 317.328,405.017 324.5,390.5 Z"/></g>
<g><path style="opacity:1" fill="#dfcecb" d="M 375.5,387.5 C 379.051,389.004 380.218,391.67 379,395.5C 377.917,392.733 376.75,390.067 375.5,387.5 Z"/></g>
<g><path style="opacity:1" fill="#cab9b5" d="M 382.5,389.5 C 383.725,390.152 384.392,391.319 384.5,393C 384.238,395.547 383.738,398.047 383,400.5C 382.501,396.848 382.335,393.182 382.5,389.5 Z"/></g>
<g><path style="opacity:1" fill="#d2c1bd" d="M 387.5,395.5 C 389.132,399.852 388.299,403.852 385,407.5C 384.996,403.352 385.83,399.352 387.5,395.5 Z"/></g>
<g><path style="opacity:1" fill="#dbcac7" d="M 357.5,397.5 C 360.6,398.009 361.434,399.342 360,401.5C 358.189,400.922 356.355,400.422 354.5,400C 355.571,399.148 356.571,398.315 357.5,397.5 Z"/></g>
<g><path style="opacity:1" fill="#f6f5f5" d="M 369.5,402.5 C 370.693,402.97 371.36,403.97 371.5,405.5C 369.88,417.696 365.047,419.362 357,410.5C 356.505,408.527 356.338,406.527 356.5,404.5C 361.337,406.395 365.671,405.729 369.5,402.5 Z"/></g>
<g><path style="opacity:1" fill="#e2d1ce" d="M 376.5,415.5 C 373.885,416.643 371.218,417.476 368.5,418C 373.872,413.741 375.705,408.241 374,401.5C 371.471,399.052 368.804,399.052 366,401.5C 365.135,399.112 365.968,397.612 368.5,397C 373.603,396.623 375.937,399.123 375.5,404.5C 377.262,404.357 378.929,404.691 380.5,405.5C 381.141,407.296 382.141,408.796 383.5,410C 382.427,411.25 382.427,412.584 383.5,414C 382.771,417.359 380.771,418.692 377.5,418C 376.748,417.329 376.414,416.496 376.5,415.5 Z"/></g>
<g><path style="opacity:0.8" fill="#877771" d="M 314.5,405.5 C 314.59,408.152 313.924,410.485 312.5,412.5C 312.41,409.848 313.076,407.515 314.5,405.5 Z"/></g>
<g><path style="opacity:1" fill="#998c88" d="M 339.5,408.5 C 339.56,407.957 339.893,407.624 340.5,407.5C 341.474,409.743 341.808,412.076 341.5,414.5C 340.833,412.5 340.167,410.5 339.5,408.5 Z"/></g>
<g><path style="opacity:1" fill="#e9d9d6" d="M 350.5,386.5 C 351.651,391.65 351.817,396.984 351,402.5C 349.692,404.641 348.192,406.641 346.5,408.5C 350.169,408.022 352.669,405.689 354,401.5C 352.069,407.442 353.569,412.275 358.5,416C 357.101,416.595 355.768,416.428 354.5,415.5C 349.597,421.02 346.264,420.02 344.5,412.5C 345.396,410.199 345.562,407.866 345,405.5C 342.884,401.372 341.884,397.039 342,392.5C 342.98,395.898 344.146,399.231 345.5,402.5C 346.325,403.386 347.325,403.719 348.5,403.5C 348.67,402.178 348.337,401.011 347.5,400C 348.416,399.626 349.25,399.126 350,398.5C 350.499,394.514 350.666,390.514 350.5,386.5 Z"/></g>
<g><path style="opacity:1" fill="#493129" d="M 376.5,415.5 C 376.104,412.518 376.771,409.851 378.5,407.5C 381.014,409.218 381.847,411.551 381,414.5C 380.085,413.672 379.419,412.672 379,411.5C 378.878,413.437 378.045,414.77 376.5,415.5 Z"/></g>
<g><path style="opacity:1" fill="#8d807b" d="M 388.5,416.5 C 387.833,416.167 387.167,415.833 386.5,415.5C 387.962,408.991 388.629,409.325 388.5,416.5 Z"/></g>
<g><path style="opacity:1" fill="#6f5851" d="M 350.5,408.5 C 352.874,410.401 353.041,412.735 351,415.5C 349.193,413.294 349.026,410.961 350.5,408.5 Z"/></g>
<g><path style="opacity:0.855" fill="#7e6d67" d="M 312.5,412.5 C 312.59,415.152 311.924,417.485 310.5,419.5C 310.41,416.848 311.076,414.515 312.5,412.5 Z"/></g>
<g><path style="opacity:1" fill="#f8f7f7" d="M 386.5,415.5 C 387.167,415.833 387.833,416.167 388.5,416.5C 392.328,421.801 393.994,427.801 393.5,434.5C 391.692,434.509 390.025,434.009 388.5,433C 385.664,429.333 382.664,425.833 379.5,422.5C 383.496,421.837 385.829,419.504 386.5,415.5 Z"/></g>
<g><path style="opacity:1" fill="#8a8989" d="M 374.5,435.5 C 372.38,434.549 370.714,433.049 369.5,431C 368.563,430.308 367.897,430.475 367.5,431.5C 366.5,430.167 365.5,430.167 364.5,431.5C 359.689,429.628 355.689,430.795 352.5,435C 340.216,441.486 327.216,445.653 313.5,447.5C 314.234,446.292 314.567,444.959 314.5,443.5C 325.728,442.814 336.394,439.98 346.5,435C 348.147,432.961 349.98,431.127 352,429.5C 352.696,426.522 353.196,423.522 353.5,420.5C 358.722,421.764 364.055,422.431 369.5,422.5C 369.351,423.552 369.517,424.552 370,425.5C 374.057,427.551 375.557,430.884 374.5,435.5 Z"/></g>
<g><path style="opacity:1" fill="#8b8a89" d="M 379.5,422.5 C 382.664,425.833 385.664,429.333 388.5,433C 390.025,434.009 391.692,434.509 393.5,434.5C 393.915,436.948 392.915,438.281 390.5,438.5C 388.39,437.946 386.39,437.112 384.5,436C 379.893,431.888 375.893,427.388 372.5,422.5C 374.655,422.162 376.989,422.162 379.5,422.5 Z"/></g>
<g><path style="opacity:1" fill="#8c8b8b" d="M 346.5,422.5 C 348.022,423.191 349.022,424.358 349.5,426C 347.481,427.688 345.814,429.688 344.5,432C 333.997,436.779 322.997,439.612 311.5,440.5C 311.5,439.167 311.5,437.833 311.5,436.5C 324.718,435.325 336.385,430.658 346.5,422.5 Z"/></g>
<g><path style="opacity:0.463" fill="#9d908b" d="M 395.5,416.5 C 396.768,418.905 397.435,421.572 397.5,424.5C 395.96,422.162 395.294,419.495 395.5,416.5 Z"/></g>
<g><path style="opacity:1" fill="#fbfafa" d="M 364.5,431.5 C 364.82,438.074 366.154,444.407 368.5,450.5C 368.833,449.333 369.167,448.167 369.5,447C 368.791,441.829 368.124,436.662 367.5,431.5C 367.897,430.475 368.563,430.308 369.5,431C 370.714,433.049 372.38,434.549 374.5,435.5C 377.235,441.801 378.402,448.467 378,455.5C 376.127,457.709 373.96,459.542 371.5,461C 360.989,463.716 350.322,465.549 339.5,466.5C 327.876,466.68 318.709,462.013 312,452.5C 311.878,450.718 312.378,449.052 313.5,447.5C 327.216,445.653 340.216,441.486 352.5,435C 355.689,430.795 359.689,429.628 364.5,431.5 Z"/></g>
<g><path style="opacity:1" fill="#3a221b" d="M 367.5,431.5 C 368.124,436.662 368.791,441.829 369.5,447C 369.167,448.167 368.833,449.333 368.5,450.5C 366.154,444.407 364.82,438.074 364.5,431.5C 365.5,430.167 366.5,430.167 367.5,431.5 Z"/></g>
<g><path style="opacity:1" fill="#31556c" d="M 384.5,552.5 C 384.616,545.126 384.116,537.792 383,530.5C 379.968,509.439 376.801,488.439 373.5,467.5C 358.382,471.82 343.048,472.653 327.5,470C 323.932,469.312 320.599,468.145 317.5,466.5C 315.967,462.387 316.633,461.887 319.5,465C 322.618,466.893 325.951,468.226 329.5,469C 343.704,469.924 357.704,468.59 371.5,465C 373.664,464.086 375.664,462.919 377.5,461.5C 381.855,491.377 384.688,521.377 386,551.5C 385.617,552.056 385.117,552.389 384.5,552.5 Z"/></g>
<g><path style="opacity:1" fill="#537991" d="M 317.5,466.5 C 320.599,468.145 323.932,469.312 327.5,470C 343.048,472.653 358.382,471.82 373.5,467.5C 376.801,488.439 379.968,509.439 383,530.5C 384.116,537.792 384.616,545.126 384.5,552.5C 382.354,552.878 380.187,553.212 378,553.5C 376.342,553.325 375.009,552.658 374,551.5C 368.368,529.135 362.202,506.968 355.5,485C 355.735,484.127 356.069,483.293 356.5,482.5C 349.746,481.94 343.079,480.94 336.5,479.5C 334.07,480.347 334.07,481.347 336.5,482.5C 340.352,506.093 343.685,529.76 346.5,553.5C 342.743,553.929 339.243,553.263 336,551.5C 329.765,523.156 323.598,494.823 317.5,466.5 Z"/></g>
<g><path style="opacity:1" fill="#31576f" d="M 336.5,482.5 C 338.352,483.089 340.185,483.756 342,484.5C 344.277,505.158 346.443,525.824 348.5,546.5C 348.471,549.269 347.805,551.603 346.5,553.5C 343.685,529.76 340.352,506.093 336.5,482.5 Z"/></g>
<g><path style="opacity:0.307" fill="#afa6a3" d="M 345.5,485.5 C 347.628,484.371 349.961,484.204 352.5,485C 353.38,486.356 353.714,487.856 353.5,489.5C 352.751,488.469 352.085,487.302 351.5,486C 349.527,485.505 347.527,485.338 345.5,485.5 Z"/></g>
<g><path style="opacity:1" fill="#edebea" d="M 384.5,555.5 C 387.938,557.759 391.271,560.259 394.5,563C 388.131,563.162 381.798,562.662 375.5,561.5C 375.5,560.167 375.5,558.833 375.5,557.5C 378.781,557.58 381.781,556.913 384.5,555.5 Z"/></g>
<g><path style="opacity:1" fill="#f5f4f3" d="M 336.5,556.5 C 340.452,557.272 344.452,557.605 348.5,557.5C 348.5,558.833 348.5,560.167 348.5,561.5C 342.55,562.771 336.55,563.271 330.5,563C 332.706,560.963 334.706,558.797 336.5,556.5 Z"/></g>
<g><path style="opacity:0.802" fill="#86756f" d="M 352.5,555.5 C 352.292,557.92 352.626,560.253 353.5,562.5C 353.145,563.522 352.478,564.189 351.5,564.5C 351.19,561.287 351.523,558.287 352.5,555.5 Z"/></g>
</svg>
