<?xml version="1.0" standalone="no"?>
<!DOCTYPE svg PUBLIC "-//W3C//DTD SVG 20010904//EN"
 "http://www.w3.org/TR/2001/REC-SVG-20010904/DTD/svg10.dtd">
<svg version="1.0" xmlns="http://www.w3.org/2000/svg"
 width="703.000000pt" height="703.000000pt" viewBox="0 0 703.000000 703.000000"
 preserveAspectRatio="xMidYMid meet">

<g transform="translate(0.000000,703.000000) scale(0.100000,-0.100000)"
fill="#000000" stroke="none">
<path d="M0 3515 l0 -3515 3515 0 3515 0 0 3515 0 3515 -3515 0 -3515 0 0
-3515z m3700 1205 c0 -5 14 -10 30 -10 20 0 30 -5 30 -15 0 -12 13 -15 55 -15
42 0 55 -3 55 -15 0 -10 10 -15 30 -15 20 0 30 -5 30 -15 0 -12 13 -15 60 -15
47 0 60 3 60 15 0 8 5 15 10 15 6 0 10 7 10 15 0 8 7 15 15 15 8 0 15 7 15 15
0 10 10 15 30 15 20 0 30 -5 30 -15 0 -8 7 -15 15 -15 13 0 15 -31 15 -215 0
-184 2 -215 15 -215 13 0 15 -23 15 -145 0 -122 -2 -145 -15 -145 -8 0 -15 -7
-15 -15 0 -10 -10 -15 -30 -15 -20 0 -30 5 -30 15 0 10 -10 15 -30 15 -29 0
-30 2 -30 45 0 25 -4 45 -10 45 -5 0 -10 18 -10 40 0 29 -4 40 -15 40 -11 0
-15 12 -15 45 0 33 -4 45 -15 45 -10 0 -15 10 -15 30 0 20 -5 30 -15 30 -9 0
-15 9 -15 25 0 16 -6 25 -15 25 -8 0 -15 7 -15 15 0 8 -7 15 -15 15 -10 0 -15
10 -15 30 0 20 -5 30 -15 30 -8 0 -15 7 -15 15 0 8 -7 15 -15 15 -8 0 -15 5
-15 11 0 14 -25 39 -39 39 -6 0 -11 7 -11 15 0 10 -10 15 -30 15 -20 0 -30 5
-30 15 0 11 -12 15 -45 15 -33 0 -45 4 -45 15 0 12 -13 15 -55 15 -42 0 -55 3
-55 15 0 10 -10 15 -30 15 -20 0 -30 -5 -30 -15 0 -11 -11 -15 -40 -15 -29 0
-40 -4 -40 -15 0 -10 -10 -15 -30 -15 -20 0 -30 -5 -30 -15 0 -10 -10 -15 -30
-15 -20 0 -30 -5 -30 -15 0 -8 -7 -15 -15 -15 -9 0 -15 -9 -15 -25 0 -16 -6
-25 -15 -25 -8 0 -15 -7 -15 -15 0 -8 -4 -15 -10 -15 -5 0 -10 -20 -10 -45 0
-33 -4 -45 -15 -45 -12 0 -15 -16 -15 -85 0 -69 3 -85 15 -85 11 0 15 -11 15
-41 0 -39 17 -69 39 -69 6 0 11 -7 11 -15 0 -8 7 -15 15 -15 8 0 15 -7 15 -15
0 -8 7 -15 15 -15 8 0 15 -7 15 -15 0 -8 7 -15 15 -15 8 0 15 -7 15 -15 0 -8
7 -15 15 -15 8 0 15 -7 15 -15 0 -9 9 -15 25 -15 16 0 25 -6 25 -15 0 -8 7
-15 15 -15 8 0 15 -7 15 -15 0 -11 12 -15 45 -15 25 0 45 -4 45 -10 0 -5 7
-10 15 -10 8 0 15 -7 15 -15 0 -11 11 -15 40 -15 29 0 40 -4 40 -15 0 -10 10
-15 30 -15 20 0 30 -5 30 -15 0 -10 10 -15 30 -15 20 0 30 -5 30 -15 0 -10 10
-15 30 -15 20 0 30 -5 30 -15 0 -9 9 -15 25 -15 16 0 25 -6 25 -15 0 -10 10
-15 30 -15 17 0 30 -4 30 -10 0 -5 14 -10 30 -10 20 0 30 -5 30 -15 0 -8 7
-15 15 -15 8 0 15 -7 15 -15 0 -8 7 -15 15 -15 8 0 15 -7 15 -15 0 -9 9 -15
25 -15 16 0 25 -6 25 -15 0 -8 7 -15 15 -15 8 0 15 -7 15 -15 0 -8 7 -15 15
-15 8 0 15 -7 15 -15 0 -8 7 -15 15 -15 8 0 15 -7 15 -15 0 -8 7 -15 15 -15 9
0 15 -9 15 -25 0 -16 6 -25 15 -25 8 0 15 -7 15 -15 0 -8 7 -15 15 -15 10 0
15 -10 15 -30 0 -16 5 -30 10 -30 6 0 10 -18 10 -40 0 -29 4 -40 15 -40 12 0
15 -17 15 -90 0 -73 3 -90 15 -90 11 0 15 -11 15 -40 0 -29 -4 -40 -15 -40
-12 0 -15 -17 -15 -90 0 -73 -3 -90 -15 -90 -11 0 -15 -11 -15 -40 0 -22 -4
-40 -10 -40 -5 0 -10 -7 -10 -15 0 -8 -7 -15 -15 -15 -10 0 -15 -10 -15 -30 0
-20 -5 -30 -15 -30 -9 0 -15 -9 -15 -25 0 -16 -6 -25 -15 -25 -8 0 -15 -7 -15
-15 0 -8 -7 -15 -15 -15 -8 0 -15 -7 -15 -15 0 -8 -7 -15 -15 -15 -8 0 -15 -7
-15 -15 0 -8 -7 -15 -15 -15 -8 0 -15 -7 -15 -15 0 -8 -7 -15 -15 -15 -8 0
-15 -7 -15 -15 0 -8 -4 -15 -10 -15 -5 0 -10 -7 -10 -15 0 -10 -10 -15 -30
-15 -20 0 -30 -5 -30 -15 0 -10 -10 -15 -30 -15 -16 0 -30 -4 -30 -10 0 -5
-20 -10 -45 -10 -33 0 -45 -4 -45 -15 0 -9 -9 -15 -25 -15 -16 0 -25 -6 -25
-15 0 -12 -18 -15 -100 -15 -82 0 -100 -3 -100 -15 0 -10 -10 -15 -30 -15 -20
0 -30 5 -30 15 0 13 -23 15 -145 15 -122 0 -145 2 -145 15 0 11 -11 15 -40 15
-29 0 -40 4 -40 15 0 11 -12 15 -45 15 -25 0 -45 5 -45 10 0 6 -13 10 -30 10
-20 0 -30 5 -30 15 0 12 -16 15 -85 15 -69 0 -85 -3 -85 -15 0 -8 -7 -15 -15
-15 -8 0 -15 -4 -15 -10 0 -5 -18 -10 -40 -10 -22 0 -40 5 -40 10 0 6 -7 10
-15 10 -13 0 -15 48 -15 375 l0 375 55 0 c42 0 55 -3 55 -15 0 -8 7 -15 15
-15 10 0 15 -10 15 -30 0 -20 5 -30 15 -30 11 0 15 -11 15 -40 0 -29 4 -40 15
-40 11 0 15 -12 15 -45 0 -33 4 -45 15 -45 10 0 15 -10 15 -30 0 -20 5 -30 15
-30 9 0 15 -9 15 -25 0 -14 5 -25 10 -25 6 0 10 -13 10 -30 0 -20 5 -30 15
-30 8 0 15 -7 15 -15 0 -8 7 -15 15 -15 8 0 15 -7 15 -15 0 -8 7 -15 15 -15 8
0 15 -7 15 -15 0 -8 7 -15 15 -15 8 0 15 -4 15 -10 0 -5 7 -10 15 -10 8 0 15
-7 15 -15 0 -8 7 -15 15 -15 8 0 15 -7 15 -15 0 -8 7 -15 15 -15 8 0 15 -7 15
-15 0 -9 9 -15 25 -15 16 0 25 -6 25 -15 0 -10 10 -15 30 -15 20 0 30 -5 30
-15 0 -12 13 -15 55 -15 42 0 55 -3 55 -15 0 -10 10 -15 30 -15 20 0 30 5 30
15 0 12 15 15 75 15 60 0 75 3 75 15 0 9 9 15 25 15 16 0 25 6 25 15 0 10 10
15 30 15 20 0 30 5 30 15 0 8 7 15 15 15 8 0 15 7 15 15 0 8 7 15 15 15 8 0
15 7 15 15 0 8 5 15 11 15 22 0 39 30 39 69 0 30 4 41 15 41 11 0 15 12 15 45
0 33 4 45 15 45 12 0 15 13 15 55 0 42 -3 55 -15 55 -11 0 -15 12 -15 45 0 33
-4 45 -15 45 -11 0 -15 11 -15 40 0 22 -4 40 -10 40 -5 0 -10 14 -10 30 0 20
-5 30 -15 30 -10 0 -15 10 -15 30 0 27 -3 30 -30 30 -20 0 -30 5 -30 15 0 8
-7 15 -15 15 -8 0 -15 7 -15 15 0 8 -7 15 -15 15 -8 0 -15 5 -15 10 0 6 -11
10 -25 10 -16 0 -25 6 -25 15 0 10 -10 15 -30 15 -20 0 -30 5 -30 15 0 8 -7
15 -15 15 -8 0 -15 7 -15 15 0 10 -10 15 -30 15 -20 0 -30 5 -30 15 0 10 -10
15 -30 15 -20 0 -30 5 -30 15 0 11 -11 15 -40 15 -29 0 -40 4 -40 15 0 10 -10
15 -30 15 -16 0 -30 5 -30 10 0 6 -7 10 -15 10 -8 0 -15 7 -15 15 0 9 -9 15
-25 15 -16 0 -25 6 -25 15 0 10 -10 15 -30 15 -20 0 -30 5 -30 15 0 10 -10 15
-30 15 -20 0 -30 5 -30 15 0 8 -7 15 -15 15 -8 0 -15 7 -15 15 0 8 -7 15 -15
15 -8 0 -15 7 -15 15 0 8 -7 15 -15 15 -8 0 -15 5 -15 11 0 14 -25 39 -39 39
-6 0 -11 7 -11 15 0 8 -7 15 -15 15 -8 0 -15 7 -15 15 0 8 -7 15 -15 15 -10 0
-15 10 -15 30 0 20 -5 30 -15 30 -11 0 -15 11 -15 40 0 29 -4 40 -15 40 -12 0
-15 13 -15 60 0 47 -3 60 -15 60 -12 0 -15 14 -15 70 0 56 3 70 15 70 12 0 15
15 15 75 0 60 3 75 15 75 11 0 15 11 15 40 0 29 4 40 15 40 10 0 15 10 15 30
0 20 5 30 15 30 8 0 15 7 15 15 0 8 7 15 15 15 10 0 15 10 15 30 0 17 5 30 11
30 14 0 39 25 39 39 0 6 7 11 15 11 8 0 15 7 15 15 0 8 7 15 15 15 8 0 15 7
15 15 0 8 7 15 15 15 8 0 15 7 15 15 0 10 10 15 30 15 20 0 30 5 30 15 0 10
10 15 30 15 20 0 30 5 30 15 0 9 9 15 25 15 16 0 25 6 25 15 0 10 10 15 30 15
17 0 30 5 30 10 0 6 73 10 200 10 127 0 200 -4 200 -10z"/>
</g>
</svg>
