<?xml version="1.0" standalone="no"?>
<!DOCTYPE svg PUBLIC "-//W3C//DTD SVG 20010904//EN"
 "http://www.w3.org/TR/2001/REC-SVG-20010904/DTD/svg10.dtd">
<svg version="1.0" xmlns="http://www.w3.org/2000/svg"
 width="703.000000pt" height="703.000000pt" viewBox="0 0 703.000000 703.000000"
 preserveAspectRatio="xMidYMid meet">

<g transform="translate(0.000000,703.000000) scale(0.100000,-0.100000)"
fill="#000000" stroke="none">
<path d="M3300 4695 c0 -24 -3 -25 -55 -25 -54 0 -55 0 -55 -30 0 -30 -1 -30
-55 -30 -52 0 -55 -1 -55 -25 0 -21 -5 -25 -30 -25 -27 0 -30 -3 -30 -30 0
-25 -4 -30 -25 -30 -20 0 -25 -5 -25 -25 0 -21 -5 -25 -30 -25 -30 0 -30 -1
-30 -55 0 -52 -1 -55 -25 -55 -24 0 -25 -3 -25 -55 0 -54 0 -55 -30 -55 l-30
0 0 -195 0 -195 30 0 c30 0 30 -1 30 -55 0 -52 1 -55 25 -55 20 0 25 -5 25
-25 0 -21 5 -25 30 -25 27 0 30 -3 30 -30 0 -25 4 -30 25 -30 20 0 25 -5 25
-25 0 -21 5 -25 30 -25 25 0 30 -4 30 -25 0 -20 5 -25 25 -25 21 0 25 -5 25
-30 0 -30 1 -30 55 -30 52 0 55 -1 55 -25 0 -24 3 -25 55 -25 54 0 55 0 55
-30 0 -30 1 -30 55 -30 52 0 55 -1 55 -25 0 -24 3 -25 55 -25 54 0 55 0 55
-30 0 -30 1 -30 55 -30 52 0 55 -1 55 -25 0 -20 5 -25 25 -25 21 0 25 -5 25
-30 0 -27 3 -30 30 -30 25 0 30 -4 30 -25 0 -20 5 -25 25 -25 24 0 25 -3 25
-55 0 -54 0 -55 30 -55 l30 0 0 -165 0 -165 -30 0 c-30 0 -30 -1 -30 -55 0
-52 -1 -55 -25 -55 -21 0 -25 -5 -25 -30 0 -27 -3 -30 -30 -30 -25 0 -30 -4
-30 -25 0 -24 -3 -25 -55 -25 -54 0 -55 0 -55 -30 l0 -30 -160 0 -160 0 0 30
c0 30 -1 30 -55 30 -52 0 -55 1 -55 25 0 21 -5 25 -30 25 -27 0 -30 3 -30 30
0 25 -4 30 -25 30 -20 0 -25 5 -25 25 0 21 -5 25 -30 25 -27 0 -30 3 -30 30 0
25 -4 30 -25 30 -24 0 -25 3 -25 55 0 54 0 55 -30 55 -30 0 -30 1 -30 55 0 52
-1 55 -25 55 -25 0 -25 1 -25 80 l0 80 -30 0 c-27 0 -30 3 -30 30 0 25 -4 30
-25 30 l-25 0 0 -110 0 -110 -30 0 -30 0 0 -275 0 -275 85 0 c84 0 85 0 85 25
l0 25 110 0 110 0 0 -25 c0 -25 1 -25 80 -25 l80 0 0 -30 0 -30 300 0 300 0 0
30 c0 30 1 30 55 30 52 0 55 1 55 25 0 24 3 25 55 25 54 0 55 0 55 30 0 27 3
30 30 30 25 0 30 4 30 25 0 20 5 25 25 25 21 0 25 5 25 30 0 27 3 30 30 30 30
0 30 1 30 55 0 52 1 55 25 55 25 0 25 1 25 80 l0 80 30 0 30 0 0 195 0 195
-30 0 c-30 0 -30 1 -30 55 0 52 -1 55 -25 55 -24 0 -25 3 -25 55 0 54 0 55
-30 55 -25 0 -30 4 -30 25 0 20 -5 25 -25 25 -21 0 -25 5 -25 30 0 27 -3 30
-30 30 -25 0 -30 4 -30 25 0 24 -3 25 -55 25 -52 0 -55 1 -55 25 0 24 -3 25
-55 25 -54 0 -55 0 -55 30 0 30 -1 30 -55 30 -52 0 -55 1 -55 25 0 24 -3 25
-55 25 -54 0 -55 0 -55 30 0 29 -1 30 -50 30 -47 0 -50 2 -50 25 0 24 -3 25
-55 25 -54 0 -55 0 -55 30 0 27 -3 30 -30 30 -25 0 -30 4 -30 25 0 24 -3 25
-55 25 l-55 0 0 55 c0 52 -1 55 -25 55 -24 0 -25 3 -25 55 0 54 0 55 -30 55
l-30 0 0 85 0 85 30 0 c30 0 30 1 30 55 0 52 1 55 25 55 20 0 25 5 25 25 0 21
5 25 30 25 27 0 30 3 30 30 0 25 4 30 25 30 20 0 25 5 25 25 l0 25 165 0 165
0 0 -25 c0 -24 3 -25 55 -25 54 0 55 0 55 -30 0 -25 4 -30 25 -30 20 0 25 -5
25 -25 0 -21 5 -25 30 -25 27 0 30 -3 30 -30 0 -25 4 -30 25 -30 24 0 25 -3
25 -55 0 -54 0 -55 30 -55 30 0 30 -1 30 -55 0 -52 1 -55 25 -55 25 0 25 -1
25 -80 l0 -80 30 0 c27 0 30 -3 30 -30 0 -25 4 -30 25 -30 l25 0 0 360 0 360
-55 0 c-54 0 -55 0 -55 -30 l0 -30 -80 0 -80 0 0 30 0 30 -85 0 c-84 0 -85 0
-85 25 l0 25 -215 0 -215 0 0 -25z"/>
</g>
</svg>
